<mxfile host="app.diagrams.net" agent="Mozilla/5.0 (Windows NT 10.0; Win64; x64) AppleWebKit/537.36 (KHTML, like Gecko) Chrome/131.0.0.0 Safari/537.36 Edg/131.0.0.0" version="24.9.0">
  <diagram name="PÃ¡gina-1" id="q0FpU5cjPh6NAfetAwEG">
    <mxGraphModel dx="2178" dy="2039" grid="1" gridSize="10" guides="1" tooltips="1" connect="1" arrows="1" fold="1" page="1" pageScale="1" pageWidth="827" pageHeight="1169" math="0" shadow="0">
      <root>
        <mxCell id="0" />
        <mxCell id="1" parent="0" />
        <mxCell id="jc4ThZQVzv2EggQByJUq-30" style="edgeStyle=orthogonalEdgeStyle;rounded=0;orthogonalLoop=1;jettySize=auto;html=1;exitX=1;exitY=0.5;exitDx=0;exitDy=0;entryX=0.5;entryY=1;entryDx=0;entryDy=0;endArrow=none;endFill=0;" edge="1" parent="1" source="DI4EW8qrKfRg6Ein0li6-1" target="DI4EW8qrKfRg6Ein0li6-4">
          <mxGeometry relative="1" as="geometry" />
        </mxCell>
        <mxCell id="DI4EW8qrKfRg6Ein0li6-1" value="Persona" style="whiteSpace=wrap;html=1;align=center;" parent="1" vertex="1">
          <mxGeometry x="-180" y="195" width="100" height="40" as="geometry" />
        </mxCell>
        <mxCell id="DI4EW8qrKfRg6Ein0li6-7" style="rounded=0;orthogonalLoop=1;jettySize=auto;html=1;exitX=0.75;exitY=0;exitDx=0;exitDy=0;endArrow=none;endFill=0;entryX=0;entryY=0.5;entryDx=0;entryDy=0;" parent="1" source="DI4EW8qrKfRg6Ein0li6-2" target="DI4EW8qrKfRg6Ein0li6-4" edge="1">
          <mxGeometry relative="1" as="geometry">
            <mxPoint x="120" y="130" as="targetPoint" />
          </mxGeometry>
        </mxCell>
        <mxCell id="jc4ThZQVzv2EggQByJUq-32" style="edgeStyle=orthogonalEdgeStyle;rounded=0;orthogonalLoop=1;jettySize=auto;html=1;exitX=1;exitY=0.5;exitDx=0;exitDy=0;entryX=0.5;entryY=0;entryDx=0;entryDy=0;endArrow=none;endFill=0;" edge="1" parent="1" source="DI4EW8qrKfRg6Ein0li6-2" target="jc4ThZQVzv2EggQByJUq-31">
          <mxGeometry relative="1" as="geometry" />
        </mxCell>
        <mxCell id="DI4EW8qrKfRg6Ein0li6-2" value="Empleado&lt;span style=&quot;color: rgba(0, 0, 0, 0); font-family: monospace; font-size: 0px; text-align: start; text-wrap-mode: nowrap;&quot;&gt;%3CmxGraphModel%3E%3Croot%3E%3CmxCell%20id%3D%220%22%2F%3E%3CmxCell%20id%3D%221%22%20parent%3D%220%22%2F%3E%3CmxCell%20id%3D%222%22%20value%3D%22Persona%22%20style%3D%22whiteSpace%3Dwrap%3Bhtml%3D1%3Balign%3Dcenter%3B%22%20vertex%3D%221%22%20parent%3D%221%22%3E%3CmxGeometry%20x%3D%22360%22%20y%3D%22300%22%20width%3D%22100%22%20height%3D%2240%22%20as%3D%22geometry%22%2F%3E%3C%2FmxCell%3E%3C%2Froot%3E%3C%2FmxGraphModel%3E&lt;/span&gt;&lt;span style=&quot;color: rgba(0, 0, 0, 0); font-family: monospace; font-size: 0px; text-align: start; text-wrap-mode: nowrap;&quot;&gt;%3CmxGraphModel%3E%3Croot%3E%3CmxCell%20id%3D%220%22%2F%3E%3CmxCell%20id%3D%221%22%20parent%3D%220%22%2F%3E%3CmxCell%20id%3D%222%22%20value%3D%22Persona%22%20style%3D%22whiteSpace%3Dwrap%3Bhtml%3D1%3Balign%3Dcenter%3B%22%20vertex%3D%221%22%20parent%3D%221%22%3E%3CmxGeometry%20x%3D%22360%22%20y%3D%22300%22%20width%3D%22100%22%20height%3D%2240%22%20as%3D%22geometry%22%2F%3E%3C%2FmxCell%3E%3C%2Froot%3E%3C%2FmxGraphModel%3E&lt;/span&gt;" style="whiteSpace=wrap;html=1;align=center;" parent="1" vertex="1">
          <mxGeometry x="180" y="50" width="100" height="40" as="geometry" />
        </mxCell>
        <mxCell id="DI4EW8qrKfRg6Ein0li6-6" style="rounded=0;orthogonalLoop=1;jettySize=auto;html=1;exitX=0.25;exitY=0;exitDx=0;exitDy=0;endArrow=none;endFill=0;entryX=0.449;entryY=0.174;entryDx=0;entryDy=0;entryPerimeter=0;" parent="1" source="DI4EW8qrKfRg6Ein0li6-3" target="DI4EW8qrKfRg6Ein0li6-4" edge="1">
          <mxGeometry relative="1" as="geometry">
            <mxPoint x="110" y="260" as="targetPoint" />
          </mxGeometry>
        </mxCell>
        <mxCell id="DI4EW8qrKfRg6Ein0li6-9" style="rounded=0;orthogonalLoop=1;jettySize=auto;html=1;exitX=1;exitY=0.5;exitDx=0;exitDy=0;entryX=0.5;entryY=1;entryDx=0;entryDy=0;endArrow=none;endFill=0;edgeStyle=orthogonalEdgeStyle;" parent="1" source="DI4EW8qrKfRg6Ein0li6-3" target="DI4EW8qrKfRg6Ein0li6-8" edge="1">
          <mxGeometry relative="1" as="geometry" />
        </mxCell>
        <mxCell id="jc4ThZQVzv2EggQByJUq-37" style="edgeStyle=orthogonalEdgeStyle;rounded=0;orthogonalLoop=1;jettySize=auto;html=1;exitX=0.75;exitY=1;exitDx=0;exitDy=0;entryX=0;entryY=0.5;entryDx=0;entryDy=0;endArrow=none;endFill=0;" edge="1" parent="1" source="DI4EW8qrKfRg6Ein0li6-3" target="DI4EW8qrKfRg6Ein0li6-31">
          <mxGeometry relative="1" as="geometry" />
        </mxCell>
        <mxCell id="DI4EW8qrKfRg6Ein0li6-3" value="Cliente" style="whiteSpace=wrap;html=1;align=center;" parent="1" vertex="1">
          <mxGeometry x="180" y="280" width="100" height="40" as="geometry" />
        </mxCell>
        <mxCell id="DI4EW8qrKfRg6Ein0li6-4" value="" style="triangle;whiteSpace=wrap;html=1;rotation=120;" parent="1" vertex="1">
          <mxGeometry y="145.00000000000006" width="69.29" height="79.91" as="geometry" />
        </mxCell>
        <mxCell id="DI4EW8qrKfRg6Ein0li6-8" value="pide" style="shape=rhombus;perimeter=rhombusPerimeter;whiteSpace=wrap;html=1;align=center;" parent="1" vertex="1">
          <mxGeometry x="340" y="220" width="110" height="50" as="geometry" />
        </mxCell>
        <mxCell id="DI4EW8qrKfRg6Ein0li6-11" style="edgeStyle=orthogonalEdgeStyle;rounded=0;orthogonalLoop=1;jettySize=auto;html=1;exitX=0;exitY=0.5;exitDx=0;exitDy=0;entryX=0.5;entryY=0;entryDx=0;entryDy=0;endArrow=none;endFill=0;" parent="1" source="DI4EW8qrKfRg6Ein0li6-10" target="DI4EW8qrKfRg6Ein0li6-8" edge="1">
          <mxGeometry relative="1" as="geometry" />
        </mxCell>
        <mxCell id="DI4EW8qrKfRg6Ein0li6-14" value="" style="edgeStyle=orthogonalEdgeStyle;rounded=0;orthogonalLoop=1;jettySize=auto;html=1;endArrow=none;endFill=0;" parent="1" source="DI4EW8qrKfRg6Ein0li6-10" target="DI4EW8qrKfRg6Ein0li6-13" edge="1">
          <mxGeometry relative="1" as="geometry" />
        </mxCell>
        <mxCell id="DI4EW8qrKfRg6Ein0li6-10" value="cita" style="whiteSpace=wrap;html=1;align=center;" parent="1" vertex="1">
          <mxGeometry x="490" y="145" width="100" height="40" as="geometry" />
        </mxCell>
        <mxCell id="DI4EW8qrKfRg6Ein0li6-12" value="" style="triangle;whiteSpace=wrap;html=1;rotation=-180;" parent="1" vertex="1">
          <mxGeometry x="690" y="125" width="60" height="80" as="geometry" />
        </mxCell>
        <mxCell id="DI4EW8qrKfRg6Ein0li6-13" value="" style="ellipse;whiteSpace=wrap;html=1;aspect=fixed;" parent="1" vertex="1">
          <mxGeometry x="670" y="155" width="20" height="20" as="geometry" />
        </mxCell>
        <mxCell id="DI4EW8qrKfRg6Ein0li6-18" style="rounded=0;orthogonalLoop=1;jettySize=auto;html=1;exitX=0;exitY=0.25;exitDx=0;exitDy=0;entryX=0;entryY=0.25;entryDx=0;entryDy=0;endArrow=none;endFill=0;" parent="1" source="DI4EW8qrKfRg6Ein0li6-15" target="DI4EW8qrKfRg6Ein0li6-12" edge="1">
          <mxGeometry relative="1" as="geometry" />
        </mxCell>
        <mxCell id="DI4EW8qrKfRg6Ein0li6-15" value="aceptada" style="whiteSpace=wrap;html=1;align=center;" parent="1" vertex="1">
          <mxGeometry x="840" y="227.5" width="100" height="40" as="geometry" />
        </mxCell>
        <mxCell id="DI4EW8qrKfRg6Ein0li6-17" style="rounded=0;orthogonalLoop=1;jettySize=auto;html=1;exitX=0;exitY=1;exitDx=0;exitDy=0;endArrow=none;endFill=0;entryX=0;entryY=0.75;entryDx=0;entryDy=0;" parent="1" source="DI4EW8qrKfRg6Ein0li6-16" target="DI4EW8qrKfRg6Ein0li6-12" edge="1">
          <mxGeometry relative="1" as="geometry">
            <mxPoint x="900" y="160" as="targetPoint" />
          </mxGeometry>
        </mxCell>
        <mxCell id="DI4EW8qrKfRg6Ein0li6-16" value="rechazada" style="whiteSpace=wrap;html=1;align=center;" parent="1" vertex="1">
          <mxGeometry x="848.5" y="65" width="100" height="40" as="geometry" />
        </mxCell>
        <mxCell id="DI4EW8qrKfRg6Ein0li6-20" value="" style="edgeStyle=orthogonalEdgeStyle;rounded=0;orthogonalLoop=1;jettySize=auto;html=1;endArrow=none;endFill=0;" parent="1" source="DI4EW8qrKfRg6Ein0li6-21" target="DI4EW8qrKfRg6Ein0li6-23" edge="1">
          <mxGeometry relative="1" as="geometry" />
        </mxCell>
        <mxCell id="DI4EW8qrKfRg6Ein0li6-21" value="vivienda" style="whiteSpace=wrap;html=1;align=center;" parent="1" vertex="1">
          <mxGeometry x="1240" y="280" width="100" height="40" as="geometry" />
        </mxCell>
        <mxCell id="DI4EW8qrKfRg6Ein0li6-22" value="" style="triangle;whiteSpace=wrap;html=1;rotation=90;" parent="1" vertex="1">
          <mxGeometry x="1260" y="370" width="60" height="80" as="geometry" />
        </mxCell>
        <mxCell id="DI4EW8qrKfRg6Ein0li6-23" value="" style="ellipse;whiteSpace=wrap;html=1;aspect=fixed;" parent="1" vertex="1">
          <mxGeometry x="1280" y="360" width="20" height="20" as="geometry" />
        </mxCell>
        <mxCell id="DI4EW8qrKfRg6Ein0li6-29" style="edgeStyle=orthogonalEdgeStyle;rounded=0;orthogonalLoop=1;jettySize=auto;html=1;exitX=1;exitY=0.5;exitDx=0;exitDy=0;entryX=0.5;entryY=0;entryDx=0;entryDy=0;endArrow=none;endFill=0;" parent="1" source="DI4EW8qrKfRg6Ein0li6-25" target="DI4EW8qrKfRg6Ein0li6-28" edge="1">
          <mxGeometry relative="1" as="geometry">
            <Array as="points">
              <mxPoint x="1500" y="500" />
              <mxPoint x="1595" y="500" />
            </Array>
          </mxGeometry>
        </mxCell>
        <mxCell id="DI4EW8qrKfRg6Ein0li6-35" style="rounded=0;orthogonalLoop=1;jettySize=auto;html=1;exitX=0.25;exitY=0;exitDx=0;exitDy=0;entryX=0.5;entryY=0;entryDx=0;entryDy=0;endArrow=none;endFill=0;" parent="1" source="DI4EW8qrKfRg6Ein0li6-25" target="DI4EW8qrKfRg6Ein0li6-22" edge="1">
          <mxGeometry relative="1" as="geometry" />
        </mxCell>
        <mxCell id="DI4EW8qrKfRg6Ein0li6-25" value="Ocupada" style="whiteSpace=wrap;html=1;align=center;" parent="1" vertex="1">
          <mxGeometry x="1400" y="467.5" width="100" height="40" as="geometry" />
        </mxCell>
        <mxCell id="DI4EW8qrKfRg6Ein0li6-26" style="rounded=0;orthogonalLoop=1;jettySize=auto;html=1;exitX=0.75;exitY=0;exitDx=0;exitDy=0;entryX=0.5;entryY=1;entryDx=0;entryDy=0;endArrow=none;endFill=0;" parent="1" source="DI4EW8qrKfRg6Ein0li6-27" target="DI4EW8qrKfRg6Ein0li6-22" edge="1">
          <mxGeometry relative="1" as="geometry" />
        </mxCell>
        <mxCell id="DI4EW8qrKfRg6Ein0li6-27" value="Libre" style="whiteSpace=wrap;html=1;align=center;" parent="1" vertex="1">
          <mxGeometry x="1150" y="460" width="100" height="40" as="geometry" />
        </mxCell>
        <mxCell id="DI4EW8qrKfRg6Ein0li6-30" style="edgeStyle=orthogonalEdgeStyle;rounded=0;orthogonalLoop=1;jettySize=auto;html=1;exitX=0;exitY=0.5;exitDx=0;exitDy=0;entryX=0.75;entryY=1;entryDx=0;entryDy=0;endArrow=none;endFill=0;" parent="1" source="DI4EW8qrKfRg6Ein0li6-28" target="DI4EW8qrKfRg6Ein0li6-25" edge="1">
          <mxGeometry relative="1" as="geometry">
            <Array as="points">
              <mxPoint x="1500" y="555" />
              <mxPoint x="1500" y="508" />
            </Array>
          </mxGeometry>
        </mxCell>
        <mxCell id="DI4EW8qrKfRg6Ein0li6-49" style="rounded=0;orthogonalLoop=1;jettySize=auto;html=1;exitX=1;exitY=1;exitDx=0;exitDy=0;entryX=0;entryY=0;entryDx=0;entryDy=0;endArrow=none;endFill=0;" parent="1" source="DI4EW8qrKfRg6Ein0li6-28" target="DI4EW8qrKfRg6Ein0li6-48" edge="1">
          <mxGeometry relative="1" as="geometry" />
        </mxCell>
        <mxCell id="DI4EW8qrKfRg6Ein0li6-28" value="renovacion" style="shape=rhombus;perimeter=rhombusPerimeter;whiteSpace=wrap;html=1;align=center;" parent="1" vertex="1">
          <mxGeometry x="1540" y="530" width="110" height="50" as="geometry" />
        </mxCell>
        <mxCell id="DI4EW8qrKfRg6Ein0li6-37" value="" style="edgeStyle=orthogonalEdgeStyle;rounded=0;orthogonalLoop=1;jettySize=auto;html=1;endArrow=none;endFill=0;" parent="1" source="DI4EW8qrKfRg6Ein0li6-31" target="DI4EW8qrKfRg6Ein0li6-15" edge="1">
          <mxGeometry relative="1" as="geometry">
            <Array as="points">
              <mxPoint x="582" y="350" />
              <mxPoint x="890" y="350" />
            </Array>
          </mxGeometry>
        </mxCell>
        <mxCell id="DI4EW8qrKfRg6Ein0li6-38" style="edgeStyle=orthogonalEdgeStyle;rounded=0;orthogonalLoop=1;jettySize=auto;html=1;exitX=1;exitY=0.5;exitDx=0;exitDy=0;entryX=0;entryY=0.5;entryDx=0;entryDy=0;endArrow=none;endFill=0;" parent="1" source="DI4EW8qrKfRg6Ein0li6-31" target="DI4EW8qrKfRg6Ein0li6-27" edge="1">
          <mxGeometry relative="1" as="geometry" />
        </mxCell>
        <mxCell id="DI4EW8qrKfRg6Ein0li6-31" value="Alquila" style="shape=rhombus;perimeter=rhombusPerimeter;whiteSpace=wrap;html=1;align=center;" parent="1" vertex="1">
          <mxGeometry x="530" y="405" width="103" height="45" as="geometry" />
        </mxCell>
        <mxCell id="DI4EW8qrKfRg6Ein0li6-32" value="" style="shape=requiredInterface;html=1;verticalLabelPosition=bottom;sketch=0;rotation=0;" parent="1" vertex="1">
          <mxGeometry x="750" y="90" width="25" height="150" as="geometry" />
        </mxCell>
        <mxCell id="DI4EW8qrKfRg6Ein0li6-33" value="" style="shape=requiredInterface;html=1;verticalLabelPosition=bottom;sketch=0;rotation=90;" parent="1" vertex="1">
          <mxGeometry x="1275" y="360" width="25" height="150" as="geometry" />
        </mxCell>
        <mxCell id="DI4EW8qrKfRg6Ein0li6-39" value="(0,1)" style="text;html=1;align=center;verticalAlign=middle;whiteSpace=wrap;rounded=0;" parent="1" vertex="1">
          <mxGeometry x="1450" y="555" width="60" height="30" as="geometry" />
        </mxCell>
        <mxCell id="DI4EW8qrKfRg6Ein0li6-40" value="(0,1)" style="text;html=1;align=center;verticalAlign=middle;whiteSpace=wrap;rounded=0;" parent="1" vertex="1">
          <mxGeometry x="1520" y="465" width="60" height="30" as="geometry" />
        </mxCell>
        <mxCell id="DI4EW8qrKfRg6Ein0li6-41" value="(1,1)" style="text;html=1;align=center;verticalAlign=middle;whiteSpace=wrap;rounded=0;" parent="1" vertex="1">
          <mxGeometry x="1610" y="520" width="60" height="30" as="geometry" />
        </mxCell>
        <mxCell id="DI4EW8qrKfRg6Ein0li6-42" value="(0,1&lt;span style=&quot;color: rgba(0, 0, 0, 0); font-family: monospace; font-size: 0px; text-align: start; text-wrap-mode: nowrap;&quot;&gt;%3CmxGraphModel%3E%3Croot%3E%3CmxCell%20id%3D%220%22%2F%3E%3CmxCell%20id%3D%221%22%20parent%3D%220%22%2F%3E%3CmxCell%20id%3D%222%22%20value%3D%22(0%2C1)%22%20style%3D%22text%3Bhtml%3D1%3Balign%3Dcenter%3BverticalAlign%3Dmiddle%3BwhiteSpace%3Dwrap%3Brounded%3D0%3B%22%20vertex%3D%221%22%20parent%3D%221%22%3E%3CmxGeometry%20x%3D%221211%22%20y%3D%22570%22%20width%3D%2260%22%20height%3D%2230%22%20as%3D%22geometry%22%2F%3E%3C%2FmxCell%3E%3C%2Froot%3E%3C%2FmxGraphModel%3E&lt;/span&gt;)" style="text;html=1;align=center;verticalAlign=middle;whiteSpace=wrap;rounded=0;" parent="1" vertex="1">
          <mxGeometry x="260" y="330" width="60" height="30" as="geometry" />
        </mxCell>
        <mxCell id="DI4EW8qrKfRg6Ein0li6-43" value="(0,N&lt;span style=&quot;color: rgba(0, 0, 0, 0); font-family: monospace; font-size: 0px; text-align: start; text-wrap-mode: nowrap;&quot;&gt;%3CmxGraphModel%3E%3Croot%3E%3CmxCell%20id%3D%220%22%2F%3E%3CmxCell%20id%3D%221%22%20parent%3D%220%22%2F%3E%3CmxCell%20id%3D%222%22%20value%3D%22(0%2C1)%22%20style%3D%22text%3Bhtml%3D1%3Balign%3Dcenter%3BverticalAlign%3Dmiddle%3BwhiteSpace%3Dwrap%3Brounded%3D0%3B%22%20vertex%3D%221%22%20parent%3D%221%22%3E%3CmxGeometry%20x%3D%221211%22%20y%3D%22570%22%20width%3D%2260%22%20height%3D%2230%22%20as%3D%22geometry%22%2F%3E%3C%2FmxCell%3E%3C%2Froot%3E%3C%2FmxGraphModel%3E&lt;/span&gt;)" style="text;html=1;align=center;verticalAlign=middle;whiteSpace=wrap;rounded=0;" parent="1" vertex="1">
          <mxGeometry x="930" y="450" width="60" height="30" as="geometry" />
        </mxCell>
        <mxCell id="DI4EW8qrKfRg6Ein0li6-44" value="(1,N&lt;span style=&quot;color: rgba(0, 0, 0, 0); font-family: monospace; font-size: 0px; text-align: start; text-wrap-mode: nowrap;&quot;&gt;%3CmxGraphModel%3E%3Croot%3E%3CmxCell%20id%3D%220%22%2F%3E%3CmxCell%20id%3D%221%22%20parent%3D%220%22%2F%3E%3CmxCell%20id%3D%222%22%20value%3D%22(0%2C1)%22%20style%3D%22text%3Bhtml%3D1%3Balign%3Dcenter%3BverticalAlign%3Dmiddle%3BwhiteSpace%3Dwrap%3Brounded%3D0%3B%22%20vertex%3D%221%22%20parent%3D%221%22%3E%3CmxGeometry%20x%3D%221211%22%20y%3D%22570%22%20width%3D%2260%22%20height%3D%2230%22%20as%3D%22geometry%22%2F%3E%3C%2FmxCell%3E%3C%2Froot%3E%3C%2FmxGraphModel%3E&lt;/span&gt;)" style="text;html=1;align=center;verticalAlign=middle;whiteSpace=wrap;rounded=0;" parent="1" vertex="1">
          <mxGeometry x="500" y="380" width="60" height="30" as="geometry" />
        </mxCell>
        <mxCell id="DI4EW8qrKfRg6Ein0li6-45" value="(0,N&lt;span style=&quot;color: rgba(0, 0, 0, 0); font-family: monospace; font-size: 0px; text-align: start; text-wrap-mode: nowrap;&quot;&gt;%3CmxGraphModel%3E%3Croot%3E%3CmxCell%20id%3D%220%22%2F%3E%3CmxCell%20id%3D%221%22%20parent%3D%220%22%2F%3E%3CmxCell%20id%3D%222%22%20value%3D%22(0%2C1)%22%20style%3D%22text%3Bhtml%3D1%3Balign%3Dcenter%3BverticalAlign%3Dmiddle%3BwhiteSpace%3Dwrap%3Brounded%3D0%3B%22%20vertex%3D%221%22%20parent%3D%221%22%3E%3CmxGeometry%20x%3D%221211%22%20y%3D%22570%22%20width%3D%2260%22%20height%3D%2230%22%20as%3D%22geometry%22%2F%3E%3C%2FmxCell%3E%3C%2Froot%3E%3C%2FmxGraphModel%3E&lt;/span&gt;)" style="text;html=1;align=center;verticalAlign=middle;whiteSpace=wrap;rounded=0;" parent="1" vertex="1">
          <mxGeometry x="430" y="180" width="60" height="30" as="geometry" />
        </mxCell>
        <mxCell id="DI4EW8qrKfRg6Ein0li6-46" value="(0,1&lt;span style=&quot;color: rgba(0, 0, 0, 0); font-family: monospace; font-size: 0px; text-align: start; text-wrap-mode: nowrap;&quot;&gt;%3CmxGraphModel%3E%3Croot%3E%3CmxCell%20id%3D%220%22%2F%3E%3CmxCell%20id%3D%221%22%20parent%3D%220%22%2F%3E%3CmxCell%20id%3D%222%22%20value%3D%22(0%2C1)%22%20style%3D%22text%3Bhtml%3D1%3Balign%3Dcenter%3BverticalAlign%3Dmiddle%3BwhiteSpace%3Dwrap%3Brounded%3D0%3B%22%20vertex%3D%221%22%20parent%3D%221%22%3E%3CmxGeometry%20x%3D%221211%22%20y%3D%22570%22%20width%3D%2260%22%20height%3D%2230%22%20as%3D%22geometry%22%2F%3E%3C%2FmxCell%3E%3C%2Froot%3E%3C%2FmxGraphModel%3E&lt;/span&gt;)" style="text;html=1;align=center;verticalAlign=middle;whiteSpace=wrap;rounded=0;" parent="1" vertex="1">
          <mxGeometry x="290" y="270" width="60" height="30" as="geometry" />
        </mxCell>
        <mxCell id="DI4EW8qrKfRg6Ein0li6-47" value="(1,N&lt;span style=&quot;color: rgba(0, 0, 0, 0); font-family: monospace; font-size: 0px; text-align: start; text-wrap-mode: nowrap;&quot;&gt;%3CmxGraphModel%3E%3Croot%3E%3CmxCell%20id%3D%220%22%2F%3E%3CmxCell%20id%3D%221%22%20parent%3D%220%22%2F%3E%3CmxCell%20id%3D%222%22%20value%3D%22(0%2C1)%22%20style%3D%22text%3Bhtml%3D1%3Balign%3Dcenter%3BverticalAlign%3Dmiddle%3BwhiteSpace%3Dwrap%3Brounded%3D0%3B%22%20vertex%3D%221%22%20parent%3D%221%22%3E%3CmxGeometry%20x%3D%221211%22%20y%3D%22570%22%20width%3D%2260%22%20height%3D%2230%22%20as%3D%22geometry%22%2F%3E%3C%2FmxCell%3E%3C%2Froot%3E%3C%2FmxGraphModel%3E&lt;/span&gt;)" style="text;html=1;align=center;verticalAlign=middle;whiteSpace=wrap;rounded=0;" parent="1" vertex="1">
          <mxGeometry x="420" y="245" width="60" height="30" as="geometry" />
        </mxCell>
        <mxCell id="DI4EW8qrKfRg6Ein0li6-48" value="Fecha de renovcion" style="ellipse;whiteSpace=wrap;html=1;align=center;" parent="1" vertex="1">
          <mxGeometry x="1670" y="640" width="100" height="40" as="geometry" />
        </mxCell>
        <mxCell id="jc4ThZQVzv2EggQByJUq-17" style="rounded=0;orthogonalLoop=1;jettySize=auto;html=1;exitX=0.5;exitY=1;exitDx=0;exitDy=0;entryX=0.5;entryY=0;entryDx=0;entryDy=0;endArrow=none;endFill=0;" edge="1" parent="1" source="DI4EW8qrKfRg6Ein0li6-50" target="DI4EW8qrKfRg6Ein0li6-21">
          <mxGeometry relative="1" as="geometry" />
        </mxCell>
        <mxCell id="DI4EW8qrKfRg6Ein0li6-50" value="direccion" style="ellipse;whiteSpace=wrap;html=1;align=center;fontStyle=4;" parent="1" vertex="1">
          <mxGeometry x="1245" y="210" width="90" height="35" as="geometry" />
        </mxCell>
        <mxCell id="jc4ThZQVzv2EggQByJUq-2" style="rounded=0;orthogonalLoop=1;jettySize=auto;html=1;exitX=0.69;exitY=1;exitDx=0;exitDy=0;entryX=0.5;entryY=0;entryDx=0;entryDy=0;endArrow=none;endFill=0;exitPerimeter=0;" edge="1" parent="1" source="jc4ThZQVzv2EggQByJUq-1" target="DI4EW8qrKfRg6Ein0li6-25">
          <mxGeometry relative="1" as="geometry" />
        </mxCell>
        <mxCell id="jc4ThZQVzv2EggQByJUq-1" value="inquilino" style="ellipse;whiteSpace=wrap;html=1;align=center;" vertex="1" parent="1">
          <mxGeometry x="1360" y="380" width="71" height="30" as="geometry" />
        </mxCell>
        <mxCell id="jc4ThZQVzv2EggQByJUq-24" style="rounded=0;orthogonalLoop=1;jettySize=auto;html=1;exitX=1;exitY=1;exitDx=0;exitDy=0;entryX=0;entryY=1;entryDx=0;entryDy=0;endArrow=none;endFill=0;" edge="1" parent="1" source="jc4ThZQVzv2EggQByJUq-3" target="DI4EW8qrKfRg6Ein0li6-1">
          <mxGeometry relative="1" as="geometry" />
        </mxCell>
        <mxCell id="jc4ThZQVzv2EggQByJUq-3" value="NIF" style="ellipse;whiteSpace=wrap;html=1;align=center;fontStyle=4;" vertex="1" parent="1">
          <mxGeometry x="-320" y="235" width="100" height="40" as="geometry" />
        </mxCell>
        <mxCell id="jc4ThZQVzv2EggQByJUq-25" style="rounded=0;orthogonalLoop=1;jettySize=auto;html=1;exitX=1;exitY=1;exitDx=0;exitDy=0;entryX=0;entryY=0;entryDx=0;entryDy=0;endArrow=none;endFill=0;" edge="1" parent="1" source="jc4ThZQVzv2EggQByJUq-4" target="DI4EW8qrKfRg6Ein0li6-1">
          <mxGeometry relative="1" as="geometry" />
        </mxCell>
        <mxCell id="jc4ThZQVzv2EggQByJUq-4" value="nombre" style="ellipse;whiteSpace=wrap;html=1;align=center;" vertex="1" parent="1">
          <mxGeometry x="-330" y="145" width="100" height="40" as="geometry" />
        </mxCell>
        <mxCell id="jc4ThZQVzv2EggQByJUq-18" style="rounded=0;orthogonalLoop=1;jettySize=auto;html=1;exitX=0;exitY=1;exitDx=0;exitDy=0;entryX=0.75;entryY=0;entryDx=0;entryDy=0;endArrow=none;endFill=0;" edge="1" parent="1" source="jc4ThZQVzv2EggQByJUq-6" target="DI4EW8qrKfRg6Ein0li6-21">
          <mxGeometry relative="1" as="geometry" />
        </mxCell>
        <mxCell id="jc4ThZQVzv2EggQByJUq-6" value="calle" style="ellipse;whiteSpace=wrap;html=1;align=center;" vertex="1" parent="1">
          <mxGeometry x="1351" y="230" width="80" height="35" as="geometry" />
        </mxCell>
        <mxCell id="jc4ThZQVzv2EggQByJUq-7" value="descripcion" style="ellipse;whiteSpace=wrap;html=1;align=center;" vertex="1" parent="1">
          <mxGeometry x="1160" y="235" width="80" height="35" as="geometry" />
        </mxCell>
        <mxCell id="jc4ThZQVzv2EggQByJUq-19" style="rounded=0;orthogonalLoop=1;jettySize=auto;html=1;exitX=0;exitY=0.5;exitDx=0;exitDy=0;entryX=1;entryY=0.25;entryDx=0;entryDy=0;endArrow=none;endFill=0;" edge="1" parent="1" source="jc4ThZQVzv2EggQByJUq-8" target="DI4EW8qrKfRg6Ein0li6-21">
          <mxGeometry relative="1" as="geometry" />
        </mxCell>
        <mxCell id="jc4ThZQVzv2EggQByJUq-8" value="piso" style="ellipse;whiteSpace=wrap;html=1;align=center;" vertex="1" parent="1">
          <mxGeometry x="1380" y="275" width="80" height="35" as="geometry" />
        </mxCell>
        <mxCell id="jc4ThZQVzv2EggQByJUq-13" value="" style="rounded=0;orthogonalLoop=1;jettySize=auto;html=1;endArrow=none;endFill=0;" edge="1" parent="1" source="jc4ThZQVzv2EggQByJUq-9" target="DI4EW8qrKfRg6Ein0li6-21">
          <mxGeometry relative="1" as="geometry" />
        </mxCell>
        <mxCell id="jc4ThZQVzv2EggQByJUq-9" value="codigo postal" style="ellipse;whiteSpace=wrap;html=1;align=center;" vertex="1" parent="1">
          <mxGeometry x="1130" y="285" width="80" height="35" as="geometry" />
        </mxCell>
        <mxCell id="jc4ThZQVzv2EggQByJUq-11" value="cod_cita" style="ellipse;whiteSpace=wrap;html=1;align=center;fontStyle=4;" vertex="1" parent="1">
          <mxGeometry x="500" y="65" width="80" height="35" as="geometry" />
        </mxCell>
        <mxCell id="jc4ThZQVzv2EggQByJUq-12" value="fecha_cita" style="ellipse;whiteSpace=wrap;html=1;align=center;" vertex="1" parent="1">
          <mxGeometry x="890" y="164.95" width="100" height="40" as="geometry" />
        </mxCell>
        <mxCell id="jc4ThZQVzv2EggQByJUq-16" style="rounded=0;orthogonalLoop=1;jettySize=auto;html=1;exitX=1;exitY=1;exitDx=0;exitDy=0;entryX=0.13;entryY=0;entryDx=0;entryDy=0;entryPerimeter=0;endArrow=none;endFill=0;" edge="1" parent="1" source="jc4ThZQVzv2EggQByJUq-7" target="DI4EW8qrKfRg6Ein0li6-21">
          <mxGeometry relative="1" as="geometry" />
        </mxCell>
        <mxCell id="jc4ThZQVzv2EggQByJUq-20" value="telefono" style="ellipse;whiteSpace=wrap;html=1;align=center;" vertex="1" parent="1">
          <mxGeometry x="-230" y="85" width="100" height="40" as="geometry" />
        </mxCell>
        <mxCell id="jc4ThZQVzv2EggQByJUq-27" style="rounded=0;orthogonalLoop=1;jettySize=auto;html=1;exitX=0;exitY=1;exitDx=0;exitDy=0;entryX=0.37;entryY=1.05;entryDx=0;entryDy=0;endArrow=none;endFill=0;entryPerimeter=0;" edge="1" parent="1" source="jc4ThZQVzv2EggQByJUq-21" target="DI4EW8qrKfRg6Ein0li6-1">
          <mxGeometry relative="1" as="geometry" />
        </mxCell>
        <mxCell id="jc4ThZQVzv2EggQByJUq-21" value="email" style="ellipse;whiteSpace=wrap;html=1;align=center;" vertex="1" parent="1">
          <mxGeometry x="-280" y="310" width="100" height="40" as="geometry" />
        </mxCell>
        <mxCell id="jc4ThZQVzv2EggQByJUq-23" value="" style="rounded=0;orthogonalLoop=1;jettySize=auto;html=1;endArrow=none;endFill=0;" edge="1" parent="1" source="jc4ThZQVzv2EggQByJUq-22" target="DI4EW8qrKfRg6Ein0li6-2">
          <mxGeometry relative="1" as="geometry" />
        </mxCell>
        <mxCell id="jc4ThZQVzv2EggQByJUq-22" value="seccion" style="ellipse;whiteSpace=wrap;html=1;align=center;" vertex="1" parent="1">
          <mxGeometry x="270" y="-30" width="100" height="40" as="geometry" />
        </mxCell>
        <mxCell id="jc4ThZQVzv2EggQByJUq-26" style="rounded=0;orthogonalLoop=1;jettySize=auto;html=1;exitX=0.5;exitY=1;exitDx=0;exitDy=0;entryX=0.4;entryY=0.125;entryDx=0;entryDy=0;entryPerimeter=0;endArrow=none;endFill=0;" edge="1" parent="1" source="jc4ThZQVzv2EggQByJUq-20" target="DI4EW8qrKfRg6Ein0li6-1">
          <mxGeometry relative="1" as="geometry" />
        </mxCell>
        <mxCell id="jc4ThZQVzv2EggQByJUq-33" style="edgeStyle=orthogonalEdgeStyle;rounded=0;orthogonalLoop=1;jettySize=auto;html=1;exitX=0.5;exitY=1;exitDx=0;exitDy=0;entryX=0;entryY=0.5;entryDx=0;entryDy=0;endArrow=none;endFill=0;" edge="1" parent="1" source="jc4ThZQVzv2EggQByJUq-31" target="DI4EW8qrKfRg6Ein0li6-10">
          <mxGeometry relative="1" as="geometry" />
        </mxCell>
        <mxCell id="jc4ThZQVzv2EggQByJUq-31" value="revisa" style="shape=rhombus;perimeter=rhombusPerimeter;whiteSpace=wrap;html=1;align=center;" vertex="1" parent="1">
          <mxGeometry x="330" y="90" width="110" height="50" as="geometry" />
        </mxCell>
        <mxCell id="jc4ThZQVzv2EggQByJUq-34" value="(0,N&lt;span style=&quot;color: rgba(0, 0, 0, 0); font-family: monospace; font-size: 0px; text-align: start; text-wrap-mode: nowrap;&quot;&gt;%3CmxGraphModel%3E%3Croot%3E%3CmxCell%20id%3D%220%22%2F%3E%3CmxCell%20id%3D%221%22%20parent%3D%220%22%2F%3E%3CmxCell%20id%3D%222%22%20value%3D%22(0%2C1)%22%20style%3D%22text%3Bhtml%3D1%3Balign%3Dcenter%3BverticalAlign%3Dmiddle%3BwhiteSpace%3Dwrap%3Brounded%3D0%3B%22%20vertex%3D%221%22%20parent%3D%221%22%3E%3CmxGeometry%20x%3D%221211%22%20y%3D%22570%22%20width%3D%2260%22%20height%3D%2230%22%20as%3D%22geometry%22%2F%3E%3C%2FmxCell%3E%3C%2Froot%3E%3C%2FmxGraphModel%3E&lt;/span&gt;)" style="text;html=1;align=center;verticalAlign=middle;whiteSpace=wrap;rounded=0;" vertex="1" parent="1">
          <mxGeometry x="430" y="140" width="60" height="30" as="geometry" />
        </mxCell>
        <mxCell id="jc4ThZQVzv2EggQByJUq-35" value="(1,N&lt;span style=&quot;color: rgba(0, 0, 0, 0); font-family: monospace; font-size: 0px; text-align: start; text-wrap-mode: nowrap;&quot;&gt;%3CmxGraphModel%3E%3Croot%3E%3CmxCell%20id%3D%220%22%2F%3E%3CmxCell%20id%3D%221%22%20parent%3D%220%22%2F%3E%3CmxCell%20id%3D%222%22%20value%3D%22(0%2C1)%22%20style%3D%22text%3Bhtml%3D1%3Balign%3Dcenter%3BverticalAlign%3Dmiddle%3BwhiteSpace%3Dwrap%3Brounded%3D0%3B%22%20vertex%3D%221%22%20parent%3D%221%22%3E%3CmxGeometry%20x%3D%221211%22%20y%3D%22570%22%20width%3D%2260%22%20height%3D%2230%22%20as%3D%22geometry%22%2F%3E%3C%2FmxCell%3E%3C%2Froot%3E%3C%2FmxGraphModel%3E&lt;/span&gt;)" style="text;html=1;align=center;verticalAlign=middle;whiteSpace=wrap;rounded=0;" vertex="1" parent="1">
          <mxGeometry x="414" y="70" width="60" height="30" as="geometry" />
        </mxCell>
        <mxCell id="jc4ThZQVzv2EggQByJUq-36" value="(0,1&lt;span style=&quot;color: rgba(0, 0, 0, 0); font-family: monospace; font-size: 0px; text-align: start; text-wrap-mode: nowrap;&quot;&gt;%3CmxGraphModel%3E%3Croot%3E%3CmxCell%20id%3D%220%22%2F%3E%3CmxCell%20id%3D%221%22%20parent%3D%220%22%2F%3E%3CmxCell%20id%3D%222%22%20value%3D%22(0%2C1)%22%20style%3D%22text%3Bhtml%3D1%3Balign%3Dcenter%3BverticalAlign%3Dmiddle%3BwhiteSpace%3Dwrap%3Brounded%3D0%3B%22%20vertex%3D%221%22%20parent%3D%221%22%3E%3CmxGeometry%20x%3D%221211%22%20y%3D%22570%22%20width%3D%2260%22%20height%3D%2230%22%20as%3D%22geometry%22%2F%3E%3C%2FmxCell%3E%3C%2Froot%3E%3C%2FmxGraphModel%3E&lt;/span&gt;)" style="text;html=1;align=center;verticalAlign=middle;whiteSpace=wrap;rounded=0;" vertex="1" parent="1">
          <mxGeometry x="290" y="35" width="60" height="30" as="geometry" />
        </mxCell>
        <mxCell id="jc4ThZQVzv2EggQByJUq-38" value="(0,1&lt;span style=&quot;color: rgba(0, 0, 0, 0); font-family: monospace; font-size: 0px; text-align: start; text-wrap-mode: nowrap;&quot;&gt;%3CmxGraphModel%3E%3Croot%3E%3CmxCell%20id%3D%220%22%2F%3E%3CmxCell%20id%3D%221%22%20parent%3D%220%22%2F%3E%3CmxCell%20id%3D%222%22%20value%3D%22(0%2C1)%22%20style%3D%22text%3Bhtml%3D1%3Balign%3Dcenter%3BverticalAlign%3Dmiddle%3BwhiteSpace%3Dwrap%3Brounded%3D0%3B%22%20vertex%3D%221%22%20parent%3D%221%22%3E%3CmxGeometry%20x%3D%221211%22%20y%3D%22570%22%20width%3D%2260%22%20height%3D%2230%22%20as%3D%22geometry%22%2F%3E%3C%2FmxCell%3E%3C%2Froot%3E%3C%2FmxGraphModel%3E&lt;/span&gt;)" style="text;html=1;align=center;verticalAlign=middle;whiteSpace=wrap;rounded=0;" vertex="1" parent="1">
          <mxGeometry x="820" y="287.5" width="60" height="30" as="geometry" />
        </mxCell>
        <mxCell id="jc4ThZQVzv2EggQByJUq-42" style="rounded=0;orthogonalLoop=1;jettySize=auto;html=1;exitX=1;exitY=0;exitDx=0;exitDy=0;entryX=0;entryY=1;entryDx=0;entryDy=0;endArrow=none;endFill=0;" edge="1" parent="1" source="jc4ThZQVzv2EggQByJUq-39" target="DI4EW8qrKfRg6Ein0li6-31">
          <mxGeometry relative="1" as="geometry" />
        </mxCell>
        <mxCell id="jc4ThZQVzv2EggQByJUq-39" value="inicio de contrato" style="ellipse;whiteSpace=wrap;html=1;align=center;" vertex="1" parent="1">
          <mxGeometry x="470" y="460" width="100" height="40" as="geometry" />
        </mxCell>
        <mxCell id="jc4ThZQVzv2EggQByJUq-41" style="rounded=0;orthogonalLoop=1;jettySize=auto;html=1;exitX=0;exitY=0;exitDx=0;exitDy=0;entryX=1;entryY=1;entryDx=0;entryDy=0;endArrow=none;endFill=0;" edge="1" parent="1" source="jc4ThZQVzv2EggQByJUq-40" target="DI4EW8qrKfRg6Ein0li6-31">
          <mxGeometry relative="1" as="geometry" />
        </mxCell>
        <mxCell id="jc4ThZQVzv2EggQByJUq-40" value="precio alquiler" style="ellipse;whiteSpace=wrap;html=1;align=center;" vertex="1" parent="1">
          <mxGeometry x="600" y="460" width="100" height="40" as="geometry" />
        </mxCell>
      </root>
    </mxGraphModel>
  </diagram>
</mxfile>
